<svg xmlns="http://www.w3.org/2000/svg" width="128" height="128"><defs><linearGradient id="a" x1="63.736" x2="63.736" y1="89.744" y2="-2.564" gradientUnits="userSpaceOnUse" gradientTransform="translate(-4)"><stop offset="0" stop-color="#006B7B"/><stop offset="1"/></linearGradient></defs><path fill="url(#a)" d="M0 0h128v128H0z"/><path d="M128 128H0V91.356C18.168 84.195 40.223 80 64 80s45.832 4.195 64 11.357z"/><path fill="#fff" d="M60.64 97.5L31.347 33.982V83.98c0 4.74.475 7.698 1.426 8.87 1.303 1.598 3.362 2.396 6.18 2.396h2.534V97.5H16.7v-2.254h2.535c3.028 0 5.176-.986 6.443-2.958.775-1.22 1.162-3.99 1.162-8.31V35.533c0-3.415-.352-5.88-1.056-7.394-.493-1.103-1.4-2.024-2.72-2.764-1.32-.74-3.442-1.11-6.364-1.11v-2.252h20.192l27.55 59.75 28.624-59.75h19.4v2.253h-2.482c-3.063 0-5.23.986-6.496 2.958-.775 1.22-1.162 3.99-1.162 8.31v48.446c0 4.74.493 7.698 1.48 8.87 1.3 1.598 3.36 2.396 6.178 2.396h2.482V97.5h-30.42v-2.254h2.535c3.064 0 5.212-.986 6.444-2.958.775-1.22 1.162-3.99 1.162-8.31V33.984L61.766 97.5H60.64z"/><path d="M128 128H81.357V80.755c17.13 1.51 32.985 5.218 46.643 10.602V128z"/></svg>