<svg xmlns="http://www.w3.org/2000/svg" xmlns:xlink="http://www.w3.org/1999/xlink" width="703" height="128" viewBox="0 0 703 128">
  <g width="800" height="600">
   <defs>
    <linearGradient id="id_idm1443513680" x1="63.736" x2="63.736" y1="89.744" y2="-2.5641" gradientUnits="userSpaceOnUse">
     <stop stop-color="#006B7B" offset="0"/>
     <stop offset="1"/>
    </linearGradient>
   </defs>
   <rect x="4" width="128" height="128" fill="url(#id_idm1443513680)"/>
   <svg x=".12006" y="73.28"/>
   <path d="m132 128h-128v-36.642c18.168-7.162 40.223-11.358 64-11.358s45.832 4.1964 64 11.358v36.642z"/>
   <svg x="20.694" y="22.006" width="95.767" height="75.487">
    <path d="m43.94 75.487-29.293-63.516v49.996c0 4.7414.4753 7.699 1.4259 8.8725 1.3027 1.5962 3.3624 2.3942 6.179 2.3942h2.535v2.2534h-24.787v-2.2534h2.535c3.028 0 5.1757-.9858 6.4431-2.9575.7746-1.2205 1.1619-3.9902 1.1619-8.3092v-48.447c0-3.4152-.3521-5.8798-1.0563-7.3937-.49292-1.1032-1.3995-2.0245-2.7198-2.7639-1.3203-.73935-3.4416-1.109-6.364-1.109v-2.2534h20.192l27.55 59.749 28.624-59.749h19.4v2.2534h-2.4822c-3.0631 0-5.2284.98584-6.4959 2.9575-.7746 1.2206-1.1619 3.9903-1.1619 8.3092v48.447c0 4.7414.4929 7.699 1.4787 8.8725 1.3027 1.5962 3.3624 2.3942 6.1791 2.3942h2.4822v2.2534h-30.42v-2.2534h2.5351c3.0631 0 5.2108-.9858 6.4431-2.9575.7745-1.2205 1.1618-3.9902 1.1618-8.3092v-49.996l-30.42 63.516h-1.1268z" fill="#fff"/>
   </svg>
   <path d="m132 128h-46.643v-47.243c17.131 1.5094 32.985 5.2175 46.643 10.602v36.642z"/>
   <svg x="150.07" y="24.83" width="557" height="69.078">
    <path d="m32.625 0c8.4791 0 15.828 3.2526 22.047 9.7578 6.2187 6.5052 9.3281 14.622 9.3281 24.351 0 10.021-3.1328 18.341-9.3984 24.961-6.2657 6.6198-13.846 9.9297-22.742 9.9297-9 0-16.56-3.2266-22.68-9.6797-6.1198-6.4531-9.1797-14.81-9.1797-25.07 0-10.469 3.5364-19.016 10.609-25.641 6.1354-5.7396 13.474-8.6094 22.016-8.6094zm-.9219 3c-5.8542 0-10.552 2.2239-14.094 6.6719-4.4063 5.5416-6.6094 13.651-6.6094 24.328 0 10.948 2.2864 19.375 6.8594 25.281 3.5104 4.4792 8.1458 6.7188 13.906 6.7188 6.1458 0 11.221-2.4557 15.227-7.3672 4.0052-4.9115 6.0078-12.659 6.0078-23.242 0-11.469-2.2031-20.026-6.6094-25.672-3.5417-4.4792-8.4375-6.7188-14.688-6.7188z"/>
    <path d="m109.62 0c8.479 0 15.828 3.2526 22.047 9.7578s9.328 14.622 9.328 24.351c0 10.021-3.133 18.341-9.398 24.961-6.266 6.6198-13.846 9.9297-22.742 9.9297-9.0003 0-16.56-3.2266-22.68-9.6797s-9.1797-14.81-9.1797-25.07c0-10.469 3.5364-19.016 10.609-25.641 6.1354-5.7396 13.474-8.6094 22.015-8.6094zm-.922 3c-5.854 0-10.552 2.2239-14.093 6.6719-4.4063 5.5416-6.6094 13.651-6.6094 24.328 0 10.948 2.2864 19.375 6.8594 25.281 3.5104 4.4792 8.1453 6.7188 13.906 6.7188 6.146 0 11.221-2.4557 15.226-7.3672 4.006-4.9115 6.008-12.659 6.008-23.242 0-11.469-2.203-20.026-6.609-25.672-3.542-4.4792-8.438-6.7188-14.688-6.7188z"/>
    <path d="m147.97 1h17l42.032 51.672v-39.672c0-4.2083-.438-6.8333-1.313-7.875-1.156-1.4167-2.984-2.125-5.484-2.125h-2.203v-2h22v2h-2.25c-2.688 0-4.594.875-5.719 2.625-.688 1.0833-1.031 3.5417-1.031 7.375v56.078h-1.641l-44.359-54.188v41.109c0 4.2083.421 6.8333 1.265 7.875 1.188 1.4167 3.016 2.125 5.485 2.125h2.25v2h-22v-2h2.203c2.718 0 4.64-.875 5.765-2.625.688-1.0833 1.032-3.5417 1.032-7.375v-46c-1.917-2.2812-3.373-3.7865-4.368-4.5156-.994-.72919-2.45-1.4062-4.367-2.0312-.948-.3021-2.38-.45313-4.297-.45313v-2z"/>
    <path d="m273 0v23h-2c-.583-4.625-1.633-8.3099-3.149-11.055-1.515-2.7448-3.671-4.9219-6.468-6.5312-2.797-1.6094-5.69-2.4141-8.68-2.4141-3.375 0-6.169 1.0573-8.383 3.1719-2.213 2.1146-3.32 4.5208-3.32 7.2187 0 2.0729.713 3.9584 2.141 5.6562 2.052 2.5 6.932 5.8334 14.64 10 6.292 3.4063 10.498 5.9949 12.617 7.7657 2.12 1.7708 3.75 3.8593 4.891 6.2656 1.141 2.4062 1.711 4.9219 1.711 7.5469 0 5-1.919 9.3125-5.758 12.938-3.838 3.625-8.779 5.4375-14.82 5.4375-1.896 0-3.677-.1563-5.344-.4688-.99-.177-3.052-.8099-6.187-1.8984-3.136-1.0885-5.12-1.6328-5.954-1.6328-.802 0-1.435.2604-1.898.7812-.464.5209-.81 1.5938-1.039 3.2188h-2v-23h2c.854 5.0312 2 8.7943 3.437 11.289 1.438 2.4948 3.636 4.5703 6.594 6.2266 2.958 1.6562 6.203 2.4844 9.735 2.4844 4.083 0 7.309-1.1068 9.679-3.3203s3.555-4.8307 3.555-7.8516c0-1.6771-.451-3.3724-1.352-5.0859s-2.299-3.3047-4.195-4.7735c-1.281-1.0104-4.831-3.0885-10.648-6.2344-5.818-3.1458-9.943-5.6614-12.375-7.5468-2.433-1.8854-4.279-3.9688-5.539-6.25-1.261-2.2813-1.891-4.7865-1.891-7.5157 0-4.7499 1.833-8.8411 5.5-12.273 3.667-3.4323 8.328-5.1484 13.984-5.1484 3.542 0 7.292.90625 11.25 2.7188 1.834.85416 3.125 1.2812 3.875 1.2812.854 0 1.552-.26562 2.094-.79687s.974-1.599 1.297-3.2031h2z"/>
    <path d="m347 0 2 23h-2c-1.958-7.0938-4.747-12.2-8.367-15.32s-7.966-4.6797-13.039-4.6797c-4.26 0-8.107 1.125-11.539 3.375s-6.133 5.8385-8.102 10.766c-1.968 4.9271-2.953 11.057-2.953 18.391 0 6.0417.951 11.281 2.852 15.719s4.76 7.8385 8.578 10.203 8.174 3.5469 13.07 3.5469c4.25 0 8.003-.8724 11.258-2.6172s6.831-5.2057 10.727-10.383l1.515 1c-3.281 5.5312-7.114 9.5807-11.5 12.148-4.385 2.5678-9.588 3.8516-15.609 3.8516-10.854 0-19.261-4.0573-25.219-12.172-4.448-6.0313-6.672-13.135-6.672-21.312 0-6.5833 1.43-12.633 4.289-18.148 2.86-5.5156 6.797-9.7891 11.813-12.82 5.015-3.0312 10.492-4.5469 16.429-4.5469 4.625 0 9.183 1.0208 13.672 3.0625 1.323.625 2.271.9375 2.844.9375.844 0 1.578-.27084 2.203-.8125.823-.76044 1.406-1.8229 1.75-3.1875h2z"/>
    <path d="m406.44 46h-26.844l-4.594 10.281c-1.104 2.5209-1.656 4.4063-1.656 5.6563 0 .9896.479 1.8593 1.438 2.6093.958.75 3.031 1.2344 6.218 1.4532v2h-20.39v-2c2.771-.4896 4.562-1.125 5.375-1.9063 1.656-1.5729 3.495-4.7552 5.515-9.5469l24.422-54.547h1l23.078 55.359c1.855 4.3438 3.54 7.1641 5.055 8.461 1.516 1.2969 3.623 2.0234 6.32 2.1797v2h-26.015v-2c2.635-.1354 4.417-.586 5.344-1.3516s1.39-1.7005 1.39-2.8047c0-1.4687-.651-3.7916-1.953-6.9687l-3.703-8.875zm-1.234-3-11.704-28.109-12.562 28.109h24.266z"/>
    <path d="m457 36.703v19.297c0 4.2083.432 6.8177 1.297 7.8281 1.166 1.4479 2.932 2.1719 5.297 2.1719h2.406v2h-27v-2h2.359c2.667 0 4.573-.9219 5.719-2.7657.614-1.0103.922-3.4218.922-7.2343v-43c0-4.2083-.417-6.8177-1.25-7.8281-1.209-1.4479-3.005-2.1719-5.391-2.1719h-2.359v-2h24.062c5.865 0 10.492.61719 13.883 1.8516 3.391 1.2344 6.247 3.3177 8.57 6.25 2.323 2.9322 3.485 6.4088 3.485 10.43 0 5.4584-1.805 9.9011-5.414 13.328-3.61 3.4272-8.711 5.1407-15.305 5.1407-1.615 0-3.362-.1094-5.242-.3282-1.88-.2187-3.893-.5416-6.039-.9687zm0-2.7344c1.771.3438 3.341.6016 4.711.7735 1.37.1718 2.539.2578 3.508.2578 3.479 0 6.479-1.3802 9-4.1407 2.52-2.7603 3.781-6.3333 3.781-10.719 0-3.0104-.602-5.8099-1.805-8.3984-1.203-2.5886-2.906-4.5261-5.109-5.8125-2.203-1.2865-4.711-1.9297-7.524-1.9297-1.698 0-3.885.32813-6.562.98438v28.984z"/>
    <path d="m518 4v28h15c3.635 0 6.063-.5313 7.281-1.5938 1.625-1.4062 2.532-3.875 2.719-7.4062h2v21h-2c-.437-2.9375-.875-4.8229-1.312-5.6563-.563-1.0416-1.487-1.8594-2.774-2.4531-1.286-.5938-3.258-.8906-5.914-.8906h-15v22.391c0 3 .133 4.8256.399 5.4766.265.651.734 1.1693 1.406 1.5546.672.3855 1.945.5782 3.82.5782h11.563c3.854 0 6.653-.2813 8.398-.8438s3.419-1.6666 5.023-3.3125c2.084-2.177 4.214-5.4583 6.391-9.8437h2l-5.875 17h-51.125v-2h2.234c1.48 0 2.886-.3802 4.219-1.1407.99-.5312 1.662-1.3228 2.016-2.375.354-1.052.531-3.2135.531-6.4843v-43c0-4.3229-.401-6.9844-1.203-7.9844-1.115-1.3438-2.969-2.0156-5.563-2.0156h-2.234v-2h51l1 15h-2c-.708-3.8437-1.49-6.4818-2.344-7.9141s-2.119-2.5234-3.797-3.2734c-1.343-.54169-3.713-.8125-7.109-.8125h-18.75z"/>
   </svg>
  </g>
</svg>
